<?xml version="1.0" encoding="utf-8"?>
<!-- Generator: Adobe Illustrator 17.0.0, SVG Export Plug-In . SVG Version: 6.00 Build 0)  -->
<!DOCTYPE svg PUBLIC "-//W3C//DTD SVG 1.1//EN" "http://www.w3.org/Graphics/SVG/1.1/DTD/svg11.dtd">
<svg version="1.1" id="Capa_1" xmlns="http://www.w3.org/2000/svg" xmlns:xlink="http://www.w3.org/1999/xlink" x="0px" y="0px"
	 width="304.657px" height="528.5px" viewBox="594.5 0 304.657 528.5" enable-background="new 594.5 0 304.657 528.5"
	 xml:space="preserve">
<g transform="matrix(1.25 0 0 -1.25 0 45)">
	<g>
		<g>
			<g>
				<path fill="#8953C1" d="M708.112-176.824c0.083-15.283-12.242-27.693-27.581-27.72l-138.183-0.359
					c-15.257-0.056-27.608,12.354-27.637,27.555c-0.083,15.339,12.271,27.693,27.499,27.746l138.183,0.359
					C695.676-149.242,708.085-161.54,708.112-176.824"/>
				<path fill="#8953C1" d="M664.225-25.125c6.578-13.792,0.69-30.263-13.126-36.841l-124.807-59.28
					c-13.763-6.522-30.234-0.636-36.756,13.155c-6.634,13.763-0.719,30.234,13.073,36.841l124.807,59.253
					C641.232-5.477,657.674-11.336,664.225-25.125"/>
				<path fill="#8953C1" d="M665.053-328.77c6.466,13.845,0.554,30.29-13.265,36.756l-125.14,58.646
					c-13.845,6.522-30.263,0.581-36.756-13.238c-6.466-13.845-0.525-30.29,13.321-36.756l125.084-58.672
					C642.116-348.53,658.614-342.588,665.053-328.77"/>
			</g>
		</g>
	</g>
</g>
</svg>
